# xmcd CD database file
#
# Track frame offsets:
#	150
#	22275
#	44883
#	73753
#	86859
#	105128
#	125716
#	151019
#
# Disc length: 2339 seconds
#
# Revision: 0
# Processed by: cddbd v1.5.2PL0 Copyright (c) Steve Scherf et al.
# Submitted via: CDex 1.70beta3
#
DISCID=6d092108
DTITLE=Bennie Green - Hornful Of Soul
DYEAR=1960
DGENRE=Jazz
TTITLE0=Summertime
TTITLE1=Groove One
TTITLE2=Lowland-Ism
TTITLE3=Dibblin' And Dabblin'
TTITLE4=My Foolish Heart
TTITLE5=Indiana
TTITLE6=Catwalk
TTITLE7=Dee Dee
EXTD=YEAR: 1960
EXTT0=
EXTT1=
EXTT2=
EXTT3=
EXTT4=
EXTT5=
EXTT6=
EXTT7=
PLAYORDER=
